<?xml version="1.0" encoding="UTF-8" standalone="no"?>
<!-- Created with Inkscape (http://www.inkscape.org/) -->

<svg
   xmlns="http://www.w3.org/2000/svg"
   version="1.1"
   width="2761.042"
   height="1059.422"
   id="svg2816">
  <defs
     id="defs2820" />
  <g
     transform="translate(858.99084,-508.30015)"
     id="g3771">
    <rect
       width="1799.7903"
       height="417.22412"
       x="-858.99084"
       y="835.53473"
       id="rect3674"
       style="fill:#edf601;fill-opacity:1;stroke:none" />
    <path
       d="m 1979.7693,1021.6494 a 548.11798,529.711 0 1 1 -1096.23591,0 548.11798,529.711 0 1 1 1096.23591,0 z"
       transform="translate(-77.718217,16.36173)"
       id="path2828"
       style="fill:#edf601;fill-opacity:1;stroke:none" />
    <g
       transform="matrix(1.0836766,0.0027096,6.5919053e-4,0.9227862,0,0)"
       id="text2830"
       style="font-size:613.50372314px;font-style:normal;font-variant:normal;font-weight:normal;font-stretch:normal;text-align:start;line-height:100%;writing-mode:lr-tb;text-anchor:start;fill:#3130ce;fill-opacity:1;stroke:none;font-family:Transport Heavy;-inkscape-font-specification:'Transport Heavy,'">
      <path
         d="m 896.69174,1343.4888 0,-439.15846 142.29216,0 c 53.9209,4.4e-4 89.0696,2.19723 105.4459,6.59037 25.1629,6.5908 46.2321,20.91985 63.2077,42.9872 16.9748,22.06813 25.4624,50.57649 25.4628,85.52509 -4e-4,26.9609 -4.8933,49.6277 -14.6786,68.0006 -9.786,18.3734 -22.2179,32.8023 -37.2955,43.2868 -15.0783,10.4849 -30.4059,17.4247 -45.9828,20.8196 -21.1694,4.194 -51.8245,6.2909 -91.9657,6.2908 l -57.8155,0 0,165.658 z m 88.67046,-364.86699 0,124.61799 48.5291,0 c 34.9487,2e-4 58.3146,-2.2964 70.0976,-6.89 11.7825,-4.593 21.019,-11.7825 27.7095,-21.5685 6.69,-9.7854 10.0351,-21.1688 10.0354,-34.1501 -3e-4,-15.9763 -4.6935,-29.1571 -14.0795,-39.5422 -9.3865,-10.38449 -21.2692,-16.875 -35.6479,-19.47157 -10.5848,-1.99672 -31.8537,-2.99526 -63.8068,-2.99562 z"
         id="path3767"
         style="font-weight:bold;fill:#3130ce;font-family:Arial;-inkscape-font-specification:Arial Bold" />
      <path
         d="m 1405.3486,1343.4888 0,-364.86699 -130.3096,0 0,-74.29147 348.9901,0 0,74.29147 -130.01,0 0,364.86699 z"
         id="path3769"
         style="font-weight:bold;fill:#3130ce;font-family:Arial;-inkscape-font-specification:Arial Bold" />
    </g>
    <g
       transform="scale(0.98692579,1.0132474)"
       id="text3670"
       style="font-size:213.59919739px;font-style:normal;font-variant:normal;font-weight:normal;font-stretch:normal;text-align:start;line-height:100%;writing-mode:lr-tb;text-anchor:start;fill:#3130ce;fill-opacity:1;stroke:none;font-family:Transport Heavy;-inkscape-font-specification:'Transport Heavy,'">
      <path
         d="m 132.36409,971.21148 0,-21.58937 18.77336,0 0,21.58937 z m 0,131.30932 0,-110.76291 18.77336,0 0,110.76291 z"
         id="path3750"
         style="fill:#3130ce;font-family:Arial;-inkscape-font-specification:Arial" />
      <path
         d="m 220.8075,1085.729 2.71171,16.5832 c -5.28441,1.1125 -10.01251,1.6687 -14.18432,1.6687 -6.81407,0 -12.09842,-1.0777 -15.85307,-3.2332 -3.75469,-2.1554 -6.39687,-4.9888 -7.92653,-8.5002 -1.5297,-3.5113 -2.29454,-10.8989 -2.29452,-22.163 l 0,-63.7251 -13.76714,0 0,-14.60151 13.76714,0 0,-27.42998 18.66907,-11.26402 0,38.694 18.87766,0 0,14.60151 -18.87766,0 0,64.7681 c -4e-5,5.3539 0.33024,8.7957 0.99082,10.3254 0.6605,1.5297 1.73823,2.7465 3.23319,3.6503 1.49487,0.904 3.63295,1.3559 6.41423,1.3559 2.08588,0 4.83235,-0.2433 8.23942,-0.7301 z"
         id="path3752"
         style="fill:#3130ce;font-family:Arial;-inkscape-font-specification:Arial" />
      <path
         d="m 311.33685,1088.8579 c -6.95318,5.9102 -13.64553,10.082 -20.07707,12.5156 -6.43168,2.4336 -13.33262,3.6504 -20.70285,3.6504 -12.16796,0 -21.51987,-2.9725 -28.05576,-8.9174 -6.53592,-5.9449 -9.80388,-13.5411 -9.80387,-22.7888 -1e-5,-5.4233 1.23417,-10.3774 3.70253,-14.8622 2.46833,-4.4847 5.70152,-8.0829 9.69957,-10.7947 3.99801,-2.7116 8.50013,-4.7628 13.50639,-6.1535 3.68511,-0.9734 9.24758,-1.912 16.68744,-2.816 15.15769,-1.8077 26.3174,-3.9632 33.47917,-6.4664 0.0695,-2.5726 0.10421,-4.2065 0.1043,-4.9019 -9e-5,-7.6483 -1.77312,-13.037 -5.31912,-16.166 -4.79771,-4.2413 -11.92463,-6.362 -21.38078,-6.3621 -8.83048,10e-5 -15.34901,1.5472 -19.55559,4.6412 -4.20666,3.0943 -7.31817,8.5698 -9.33454,16.4267 l -18.35618,-2.5031 c 1.66873,-7.8569 4.41521,-14.2016 8.23943,-19.0341 3.82418,-4.83229 9.35188,-8.55219 16.58314,-11.15971 7.23118,-2.6073 15.60965,-3.91101 25.13545,-3.91112 9.45614,1.1e-4 17.13931,1.11261 23.04952,3.33749 5.91005,2.2251 10.25573,5.02372 13.03706,8.39584 2.78114,3.3724 4.72801,7.6311 5.8406,12.7763 0.62568,3.1986 0.93857,8.9696 0.93867,17.3133 l 0,25.0311 c -1e-4,17.4523 0.3997,28.4904 1.19941,33.1142 0.7995,4.6238 2.38133,9.0564 4.74549,13.2978 l -19.60774,0 c -1.94695,-3.8938 -3.19851,-8.4481 -3.75467,-13.6629 z m -1.56445,-41.9272 c -6.81411,2.7813 -17.03516,5.1454 -30.66316,7.0922 -7.71799,1.1125 -13.17617,2.3641 -16.37455,3.7547 -3.19846,1.3906 -5.66681,3.4244 -7.40505,6.1013 -1.7383,2.677 -2.60744,5.6494 -2.60741,8.9174 -3e-5,5.0062 1.89469,9.1781 5.68416,12.5155 3.7894,3.3375 9.33449,5.0063 16.63528,5.0063 7.23117,0 13.66278,-1.5819 19.29485,-4.7455 5.63194,-3.1637 9.76903,-7.492 12.41129,-12.9849 2.01631,-4.2414 3.02451,-10.4992 3.02459,-18.7734 z"
         id="path3754"
         style="fill:#3130ce;font-family:Arial;-inkscape-font-specification:Arial" />
      <path
         d="m 357.54019,1102.5208 0,-152.89869 18.77337,0 0,152.89869 z"
         id="path3756"
         style="fill:#3130ce;font-family:Arial;-inkscape-font-specification:Arial" />
      <path
         d="m 405.62086,971.21148 0,-21.58937 18.77337,0 0,21.58937 z m 0,131.30932 0,-110.76291 18.77337,0 0,110.76291 z"
         id="path3758"
         style="fill:#3130ce;font-family:Arial;-inkscape-font-specification:Arial" />
      <path
         d="m 525.35323,1088.8579 c -6.95318,5.9102 -13.64553,10.082 -20.07707,12.5156 -6.43168,2.4336 -13.33262,3.6504 -20.70285,3.6504 -12.16796,0 -21.51987,-2.9725 -28.05576,-8.9174 -6.53592,-5.9449 -9.80388,-13.5411 -9.80387,-22.7888 -1e-5,-5.4233 1.23417,-10.3774 3.70253,-14.8622 2.46833,-4.4847 5.70152,-8.0829 9.69957,-10.7947 3.99801,-2.7116 8.50013,-4.7628 13.5064,-6.1535 3.6851,-0.9734 9.24757,-1.912 16.68743,-2.816 15.15769,-1.8077 26.3174,-3.9632 33.47917,-6.4664 0.0695,-2.5726 0.10422,-4.2065 0.1043,-4.9019 -8e-5,-7.6483 -1.77312,-13.037 -5.31912,-16.166 -4.79771,-4.2413 -11.92463,-6.362 -21.38078,-6.3621 -8.83048,10e-5 -15.34901,1.5472 -19.55559,4.6412 -4.20666,3.0943 -7.31817,8.5698 -9.33454,16.4267 l -18.35618,-2.5031 c 1.66873,-7.8569 4.41521,-14.2016 8.23943,-19.0341 3.82418,-4.83229 9.35189,-8.55219 16.58314,-11.15971 7.23118,-2.6073 15.60965,-3.91101 25.13545,-3.91112 9.45614,1.1e-4 17.13931,1.11261 23.04952,3.33749 5.91005,2.2251 10.25573,5.02372 13.03706,8.39584 2.78114,3.3724 4.72801,7.6311 5.84061,12.7763 0.62567,3.1986 0.93856,8.9696 0.93866,17.3133 l 0,25.0311 c -1e-4,17.4523 0.3997,28.4904 1.19941,33.1142 0.7995,4.6238 2.38133,9.0564 4.74549,13.2978 l -19.60774,0 c -1.94695,-3.8938 -3.19851,-8.4481 -3.75467,-13.6629 z m -1.56445,-41.9272 c -6.81411,2.7813 -17.03516,5.1454 -30.66316,7.0922 -7.71799,1.1125 -13.17617,2.3641 -16.37455,3.7547 -3.19846,1.3906 -5.66681,3.4244 -7.40505,6.1013 -1.7383,2.677 -2.60744,5.6494 -2.60741,8.9174 -3e-5,5.0062 1.89469,9.1781 5.68416,12.5155 3.7894,3.3375 9.33449,5.0063 16.63528,5.0063 7.23117,0 13.66278,-1.5819 19.29485,-4.7455 5.63194,-3.1637 9.76903,-7.492 12.41129,-12.9849 2.01631,-4.2414 3.02451,-10.4992 3.02459,-18.7734 z"
         id="path3760"
         style="fill:#3130ce;font-family:Arial;-inkscape-font-specification:Arial" />
      <path
         d="m 571.97375,1102.5208 0,-110.76291 16.89603,0 0,15.74881 c 8.13508,-12.16786 19.88581,-18.25182 35.25221,-18.25193 6.6749,1.1e-4 12.811,1.19952 18.40833,3.59823 5.59715,2.39893 9.78639,5.5452 12.56772,9.4388 2.78114,3.8939 4.72801,8.5177 5.84061,13.8715 0.6952,3.4766 1.04286,9.5606 1.04296,18.2518 l 0,68.1057 -18.77336,0 0,-67.3756 c -9e-5,-7.6483 -0.73016,-13.3672 -2.19023,-17.1567 -1.46023,-3.7894 -4.05026,-6.814 -7.77009,-9.0738 -3.71998,-2.2597 -8.08304,-3.3896 -13.08921,-3.3897 -7.99612,10e-5 -14.89706,2.538 -20.70285,7.6137 -5.80587,5.0758 -8.70879,14.7058 -8.70876,28.8901 l 0,60.492 z"
         id="path3762"
         style="fill:#3130ce;font-family:Arial;-inkscape-font-specification:Arial" />
      <path
         d="m 766.69527,1066.8514 19.39915,2.3988 c -3.05947,11.3335 -8.72624,20.1292 -17.00033,26.387 -8.27427,6.2578 -18.84297,9.3867 -31.70613,9.3867 -16.20077,0 -29.0466,-4.9889 -38.53755,-14.9666 -9.49099,-9.9777 -14.23648,-23.9707 -14.23647,-41.9793 -10e-6,-18.6342 4.79762,-33.0967 14.39291,-43.3873 9.59525,-10.29053 22.04128,-15.43582 37.33814,-15.43593 14.81003,1.1e-4 26.90841,5.04111 36.29518,15.12303 9.38658,10.082 14.07992,24.2664 14.08003,42.5529 -1.1e-4,1.1126 -0.0349,2.7813 -0.1043,5.0063 l -82.60282,0 c 0.69529,12.1679 4.13707,21.4851 10.32536,27.9514 6.18821,6.4664 13.90614,9.6996 23.15382,9.6996 6.8835,0 12.75886,-1.8078 17.6261,-5.4234 4.86709,-3.6156 8.72605,-9.3867 11.57691,-17.3132 z m -61.63922,-30.3503 61.84781,0 c -0.83446,-9.3171 -3.19851,-16.305 -7.09216,-20.9636 -5.97974,-7.2311 -13.73244,-10.8468 -23.25811,-10.8468 -8.6219,0 -15.87049,2.8856 -21.74582,8.6566 -5.8754,5.7711 -9.12597,13.489 -9.75172,23.1538 z"
         id="path3764"
         style="fill:#3130ce;font-family:Arial;-inkscape-font-specification:Arial" />
    </g>
    <g
       transform="translate(85.08519,643.56487)"
       id="g3709"
       style="fill:#3130ce;fill-opacity:1">
      <g
         transform="scale(1.0359314,0.96531485)"
         id="text3666"
         style="font-size:230.27766418px;font-style:normal;font-variant:normal;font-weight:normal;font-stretch:normal;text-align:start;line-height:100%;writing-mode:lr-tb;text-anchor:start;fill:#3130ce;fill-opacity:1;stroke:none;font-family:Transport Heavy;-inkscape-font-specification:'Transport Heavy,'">
        <path
           d="m -584.95814,324.37299 84.66752,0 c 18.44008,1.6e-4 32.25148,4.38533 41.43423,13.15551 9.18247,8.77048 13.77378,21.25134 13.77394,37.44261 -1.6e-4,16.64126 -5.00375,29.64683 -15.01078,39.01677 -10.00731,9.37009 -25.28044,14.0551 -45.81941,14.05503 l -34.16729,0 0,61.16751 -44.87821,0 0,-164.83743 z m 46.27423,70.27517 17.36696,0 c 9.81969,9e-5 16.71602,-1.70525 20.689,-5.11604 3.97279,-3.41058 5.95923,-7.77701 5.95934,-13.09929 -1.1e-4,-5.17213 -1.72419,-9.5573 -5.17225,-13.15551 -3.44827,-3.59796 -9.93232,-5.397 -19.45217,-5.39713 l -19.39088,-0.74907 0,37.51704 z"
           id="path3707"
           style="font-weight:900;fill:#3130ce;fill-opacity:1;font-family:Arial Black;-inkscape-font-specification:Arial Black Heavy" />
      </g>
      <g
         transform="scale(0.99908952,1.0009113)"
         id="text3676"
         style="font-size:222.08805847px;font-style:normal;font-variant:normal;font-weight:normal;font-stretch:normal;text-align:start;line-height:89.99999762%;writing-mode:lr-tb;text-anchor:start;fill:#3130ce;fill-opacity:1;stroke:none;font-family:Transport Heavy;-inkscape-font-specification:'Transport Heavy,'">
        <path
           d="m -463.73233,413.29099 c -1e-5,-17.56744 5.92811,-32.04436 17.78439,-43.4308 11.85623,-11.38624 27.8694,-17.07941 48.03956,-17.07952 23.06178,1.1e-4 40.48468,6.68733 52.26877,20.06166 9.47041,10.77194 14.20569,24.03793 14.20583,39.79801 -1.4e-4,17.71214 -5.87405,32.2252 -17.62174,43.53924 -11.74793,11.31405 -27.99606,16.97108 -48.74442,16.97108 -18.5074,0 -33.4723,-4.69913 -44.89476,-14.09739 -14.0251,-11.63935 -21.03764,-26.89343 -21.03763,-45.76228 z m 44.2441,-0.10844 c -5e-5,10.26583 2.07841,17.85673 6.23538,22.7727 4.15686,4.91604 9.38012,7.37404 15.66979,7.37402 6.36182,2e-5 11.58507,-2.42183 15.66979,-7.26558 4.08453,-4.84368 6.12684,-12.61531 6.12694,-23.31491 -10e-5,-9.97654 -2.06048,-17.40477 -6.18116,-22.28471 -4.12086,-4.87978 -9.21761,-7.31971 -15.29025,-7.3198 -6.43426,9e-5 -11.74788,2.47616 -15.94089,7.42824 -4.19312,4.95223 -6.28965,12.4889 -6.2896,22.61004 z"
           id="path3704"
           style="font-weight:900;line-height:89.99999762%;fill:#3130ce;fill-opacity:1;font-family:Arial Black;-inkscape-font-specification:Arial Black Heavy" />
      </g>
      <g
         transform="scale(0.99908952,1.0009113)"
         id="text3680"
         style="font-size:222.08805847px;font-style:normal;font-variant:normal;font-weight:normal;font-stretch:normal;text-align:start;line-height:100%;writing-mode:lr-tb;text-anchor:start;fill:#3130ce;fill-opacity:1;stroke:none;font-family:Transport Heavy;-inkscape-font-specification:'Transport Heavy,'">
        <path
           d="m -331.90388,435.05414 43.08659,-0.5086 c 1.80731,5.20522 4.3376,8.92837 7.5909,11.16947 3.25318,2.24114 7.59084,3.3617 13.01297,3.36168 5.92806,2e-5 10.51874,-1.26513 13.77207,-3.79545 2.53021,-1.87962 3.79536,-4.22919 3.79545,-7.04869 -9e-5,-3.18092 -1.66286,-5.63892 -4.98831,-7.37402 -2.38579,-1.22896 -8.71154,-2.74714 -18.97725,-4.55454 -15.32644,-2.67484 -25.97176,-5.15092 -31.936,-7.42824 -5.96431,-2.27721 -10.98876,-6.12688 -15.07336,-11.54901 -4.08464,-5.422 -6.12695,-11.60316 -6.12694,-18.54349 -10e-6,-7.59081 2.20496,-14.13343 6.61492,-19.6279 4.40993,-5.49425 10.48265,-9.59695 18.21816,-12.3081 7.73545,-2.71092 18.10967,-4.06643 31.1227,-4.06655 13.73583,1.2e-4 23.87509,1.04838 30.41782,3.1448 6.54253,2.09665 12.00074,5.34989 16.37466,9.75973 4.37368,4.41005 5.83521,14.70893 8.7271,22.22744 l -39.68713,-0.21383 c -1.0845,-3.68692 -2.89186,-6.39796 -5.42208,-8.13311 -3.4702,-2.31332 -7.66326,-3.47003 -12.5792,-3.47012 -4.98837,9e-5 -8.62115,0.88569 -10.89837,2.65681 -2.27732,1.7713 -3.41595,3.92205 -3.4159,6.45227 -5e-5,2.81956 1.44583,4.95224 4.33766,6.39804 2.89171,1.44596 9.18131,2.74726 18.8688,3.90389 14.67566,1.66284 25.59208,3.97626 32.74932,6.94025 7.15702,2.96414 12.63331,7.19335 16.42888,12.68765 3.79532,5.49442 5.69304,11.53099 5.69317,18.10972 -1.3e-4,6.65111 -2.00629,13.12144 -6.0185,19.41102 -4.01245,6.28961 -10.33819,11.29599 -18.97725,15.01914 -8.63926,3.72315 -20.40515,5.58473 -35.29769,5.58473 -21.03768,0 -36.02066,-3.00021 -44.94897,-9.00064 -8.92836,-6.00041 -13.93393,-18.1433 -16.46422,-29.20435 z"
           id="path3701"
           style="font-weight:900;fill:#3130ce;fill-opacity:1;font-family:Arial Black;-inkscape-font-specification:Arial Black Heavy" />
      </g>
      <g
         transform="scale(1.0156846,0.98455763)"
         id="text3684"
         style="font-size:225.77697754px;font-style:normal;font-variant:normal;font-weight:normal;font-stretch:normal;text-align:start;line-height:100%;writing-mode:lr-tb;text-anchor:start;fill:#3130ce;fill-opacity:1;stroke:none;font-family:Transport Heavy;-inkscape-font-specification:'Transport Heavy,'">
        <path
           d="m -146.85194,316.74827 0,44.53803 24.69435,0 0,32.74208 -24.69435,0 0,41.56148 c -7e-5,4.9977 0.47765,8.30498 1.43315,9.92184 1.46983,2.49886 4.04216,3.74828 7.71699,3.74825 3.3072,3e-5 7.93739,-0.95541 13.89057,-2.86631 l 3.30728,30.97819 c -11.09784,2.42534 -21.46064,3.638 -31.08843,3.63801 -11.17131,-10e-6 -19.40275,-1.43316 -24.69435,-4.29947 -5.29169,-2.8663 -9.2053,-7.22088 -11.74085,-13.06375 -2.5356,-5.84284 -3.80339,-15.30533 -3.80337,-28.38749 l 0,-41.23075 -16.5364,0 0,-32.74208 16.5364,0 0,-21.49732 z"
           id="path3698"
           style="font-weight:900;fill:#3130ce;fill-opacity:1;font-family:Arial Black;-inkscape-font-specification:Arial Black Heavy" />
      </g>
      <g
         transform="scale(0.99908952,1.0009113)"
         id="text3688"
         style="font-size:212.75758362px;font-style:normal;font-variant:normal;font-weight:normal;font-stretch:normal;text-align:start;line-height:100%;writing-mode:lr-tb;text-anchor:start;fill:#3130ce;fill-opacity:1;stroke:none;font-family:Transport Heavy;-inkscape-font-specification:'Transport Heavy,'">
        <path
           d="m 3.5726923,424.9259 -84.7705993,0 c 0.761776,6.78722 2.597085,11.84298 5.505933,15.16729 4.086105,4.77876 9.41889,7.16812 15.998373,7.1681 4.155346,2e-5 8.102992,-1.03883 11.842952,-3.11657 2.285395,-1.31585 4.744017,-3.63596 7.375873,-6.96033 l 41.6581009,-0.49084 c -6.3717729,11.08114 -14.0592949,23.36298 -23.0625899,28.17634 -9.003514,4.81336 -21.919936,7.22004 -38.749306,7.22004 -14.613289,0 -26.109943,-2.06039 -34.489999,-6.18119 -8.38013,-4.12078 -15.32314,-10.66556 -20.82905,-19.63436 -5.50594,-8.96876 -8.25891,-19.51313 -8.2589,-31.63315 -1e-5,-17.24493 5.52323,-31.2002 16.56974,-41.86587 11.046463,-10.66548 26.300308,-15.99826 45.761583,-15.99838 15.790516,1.2e-4 28.256768,2.38948 37.398794,7.16811 9.141811,4.77883 16.102135,11.70453 20.8809931,20.7771 4.778602,9.07275 7.167967,20.88106 7.1681022,35.42497 l 0,4.77874 z M -39.435921,404.66822 c -0.831176,-8.17226 -3.030084,-14.02447 -6.596731,-17.55666 -3.566819,-3.53202 -8.258978,-5.29807 -14.076491,-5.29816 -6.717996,9e-5 -12.085411,2.66648 -16.102259,7.99919 -2.562562,3.32441 -4.190101,8.27628 -4.88262,14.85563 l 41.658101,0 z"
           id="path3695"
           style="font-weight:900;fill:#3130ce;fill-opacity:1;font-family:Arial Black;-inkscape-font-specification:Arial Black Heavy" />
      </g>
    </g>
  </g>
</svg>
